<?xml version="1.0" encoding="UTF-8" standalone="no"?>
<!-- Created with Inkscape (http://www.inkscape.org/) -->

<svg
   width="128.12462mm"
   height="128.12462mm"
   viewBox="0 0 128.12462 128.12462"
   version="1.1"
   id="svg1"
   xml:space="preserve"
   inkscape:version="1.4.2 (1:1.4.2+202505120737+ebf0e940d0)"
   sodipodi:docname="favicon.svg"
   xmlns:inkscape="http://www.inkscape.org/namespaces/inkscape"
   xmlns:sodipodi="http://sodipodi.sourceforge.net/DTD/sodipodi-0.dtd"
   xmlns="http://www.w3.org/2000/svg"
   xmlns:svg="http://www.w3.org/2000/svg"><sodipodi:namedview
     id="namedview1"
     pagecolor="#ffffff"
     bordercolor="#000000"
     borderopacity="0.25"
     inkscape:showpageshadow="2"
     inkscape:pageopacity="0.0"
     inkscape:pagecheckerboard="0"
     inkscape:deskcolor="#d1d1d1"
     inkscape:document-units="mm"
     inkscape:zoom="1.0242632"
     inkscape:cx="210.39514"
     inkscape:cy="228.94506"
     inkscape:window-width="1920"
     inkscape:window-height="999"
     inkscape:window-x="1920"
     inkscape:window-y="0"
     inkscape:window-maximized="1"
     inkscape:current-layer="layer1" /><defs
     id="defs1" /><g
     inkscape:label="Layer 1"
     inkscape:groupmode="layer"
     id="layer1"
     transform="translate(-155.575,-355.07084)"><circle
       style="fill:#d2d2d2;fill-opacity:1;stroke:none;stroke-width:2.54795;stroke-miterlimit:7;stroke-opacity:1;paint-order:stroke fill markers"
       id="path10-6"
       cx="219.63731"
       cy="419.13315"
       r="64.062309" /><path
       style="fill:#ffffff;fill-opacity:1;stroke-width:0.96964"
       d="m 223.47423,477.39876 c -3.79686,-0.54023 -5.57713,-1.17401 -7.72345,-2.74955 -2.25302,-1.65388 -3.92194,-3.62527 -5.95708,-7.03678 -0.93948,-1.57487 -3.25018,-4.71057 -5.13487,-6.96821 -2.98131,-3.57127 -4.05653,-5.06433 -6.18957,-8.59496 -0.39858,-0.65974 -0.56775,-0.69317 -1.81837,-0.35936 -1.23145,0.3287 -1.46389,0.28822 -2.17357,-0.37848 -0.43705,-0.41061 -1.07911,-1.5573 -1.42679,-2.54822 -0.34768,-0.99092 -1.15835,-2.75735 -1.80151,-3.92541 -0.83268,-1.51226 -1.4189,-3.33223 -2.03604,-6.32105 -1.01471,-4.91431 -1.68202,-6.39341 -3.83396,-8.49798 -0.87153,-0.85234 -2.30727,-2.71395 -3.19052,-4.1369 -1.44652,-2.33038 -2.02332,-3.54786 -3.54515,-7.48296 -0.25466,-0.65847 -0.46977,-1.88066 -0.47803,-2.71594 -0.0188,-1.90323 -0.63272,-5.28848 -1.2444,-6.86194 -0.25598,-0.65848 -0.61589,-1.88992 -0.79979,-2.73655 -0.18389,-0.84661 -0.56797,-2.53984 -0.85351,-3.76273 -0.32688,-1.39994 -0.54097,-4.1956 -0.57806,-7.54827 l -0.059,-5.32482 2.10943,-4.25307 c 2.40316,-4.84529 4.91455,-8.45109 6.83658,-9.81585 1.21256,-0.86099 3.46739,-3.77307 3.46739,-4.47809 0,-1.18383 3.85676,-3.80052 5.61485,-3.8095 0.36018,-0.002 1.78991,-0.5421 3.17718,-1.20058 1.38726,-0.65847 2.7507,-1.19723 3.02986,-1.19723 0.27916,0 1.46998,-0.43638 2.64627,-0.96974 1.1763,-0.53336 2.57528,-1.07932 3.10885,-1.21323 0.53356,-0.13392 1.62603,-0.5518 2.42768,-0.92862 1.35699,-0.63786 2.04475,-0.67806 9.96773,-0.58262 l 8.51016,0.10251 2.56551,1.28669 c 3.29373,1.65194 7.13852,4.30826 8.35842,5.77475 1.15852,1.39269 7.99873,8.77664 10.05653,10.85595 1.39201,1.40656 3.81942,5.94163 3.81942,7.13574 0,0.28045 0.69387,1.55363 1.54193,2.8293 2.45827,3.69776 2.74334,4.87761 3.2909,13.6203 0.3995,6.37879 0.40589,6.83587 0.11454,8.19989 -0.2735,1.28044 0.49252,4.12696 1.76138,6.54527 1.28807,2.45494 1.67138,4.78547 1.22745,7.46301 -0.21047,1.26945 -0.48166,3.72402 -0.60265,5.45459 -0.12099,1.73058 -0.39667,3.37561 -0.61264,3.65564 -0.21597,0.28003 -0.93142,0.64777 -1.5899,0.81719 -1.17801,0.3031 -1.19582,0.33452 -1.10893,1.95645 0.10521,1.96388 -0.45698,4.82049 -2.25898,11.4783 -0.73583,2.71868 -1.66275,6.31211 -2.0598,7.98543 -0.70394,2.96657 -3.38441,9.2629 -5.11229,12.00857 -1.91589,3.04441 -3.8524,4.86671 -7.02695,6.61253 -4.99397,2.74637 -8.73354,3.42509 -14.41634,2.61653 z"
       id="path6-0-1" /><path
       id="path5-9-8"
       style="fill:#d2d2d2;fill-opacity:1"
       d="m 216.55104,359.10281 c -7.98244,0 -8.0809,0.009 -9.22631,0.85421 -0.63677,0.4698 -1.93806,1.04141 -2.89181,1.27021 -0.95375,0.2288 -1.8202,0.55594 -1.92598,0.72709 -0.10578,0.17115 -1.57395,0.73048 -3.26234,1.24281 -1.68838,0.51232 -3.69014,1.24514 -4.4483,1.62885 -0.75816,0.38372 -2.15667,0.92883 -3.10782,1.21129 -2.01933,0.59967 -4.26768,2.49766 -5.25756,4.43797 -0.38342,0.75157 -2.23799,2.90574 -4.1212,4.78679 -2.79367,2.79046 -3.72419,4.00446 -5.05447,6.59495 -0.89674,1.74625 -2.04682,3.95253 -2.55592,4.90306 -0.87885,1.64094 -0.92604,1.99059 -0.92604,6.92412 0,4.24043 0.169,5.99869 0.91726,9.56066 0.50428,2.40056 1.08631,4.57165 1.29346,4.82451 0.43347,0.52913 0.83044,2.54447 1.31723,6.68228 0.18821,1.59983 0.74147,3.85754 1.22938,5.01675 0.48791,1.15921 0.88729,2.27739 0.88729,2.48512 0,0.20774 0.29751,0.80805 0.66146,1.33377 0.36396,0.52572 1.40574,2.10242 2.31458,3.50418 0.90884,1.40176 2.12323,2.88434 2.69906,3.29437 1.49007,1.06102 2.52608,3.40724 3.64991,8.26823 0.88642,3.83407 1.50264,5.43076 4.56045,11.81788 l 0.75964,1.5875 1.79059,-0.093 1.7911,-0.0925 1.8495,3.09129 c 1.01733,1.70041 3.18284,4.59975 4.81211,6.44301 1.62928,1.84327 3.6222,4.46264 4.42919,5.82084 4.22342,7.10818 7.41033,9.92666 12.76459,11.28871 6.66897,1.69648 10.9842,1.06688 17.42995,-2.54248 3.79766,-2.12653 5.76577,-4.53969 8.60929,-10.55594 1.62711,-3.44259 2.52424,-6.00538 3.74861,-10.70684 4.14153,-15.90307 3.99786,-15.24025 3.76256,-17.35191 -0.19901,-1.78595 -0.14303,-2.04878 0.52503,-2.466 0.70571,-0.44075 1.66578,-0.66236 1.91255,-0.74466 0.59089,-0.19696 0.87612,-1.52686 0.92552,-4.3155 0.0241,-1.35819 0.20069,-3.14875 0.39223,-3.97908 0.19156,-0.83034 0.25166,-1.89375 0.13384,-2.36317 -0.0617,-0.24574 -0.17014,-3.79448 -1.76837,-7.13496 -1.56589,-3.2729 -1.83023,-4.62181 -1.22111,-6.22391 0.20829,-0.5478 0.20296,-3.38286 -0.014,-7.60471 -0.35982,-7.00439 -1.13904,-11.32403 -2.34921,-13.02349 -1.71317,-2.40583 -2.54268,-3.82498 -2.54868,-4.36098 -0.0165,-1.46882 -2.90381,-6.21214 -5.32991,-8.75553 -1.38809,-1.45521 -4.00658,-4.27792 -5.81876,-6.27301 -1.81219,-1.9951 -3.73732,-3.99947 -4.27829,-4.45399 -2.07604,-1.74431 -6.0271,-4.25988 -8.45737,-5.3852 l -2.53421,-1.17357 z m -2.06447,22.98206 c 0.28043,0.004 0.44447,0.11061 0.58032,0.3297 0.17078,0.27541 0.82547,0.50074 1.4547,0.50074 0.84461,0 1.25254,0.21516 1.55804,0.82217 0.22759,0.45221 1.30637,1.38886 2.39779,2.08153 1.89177,1.2006 1.95155,1.28256 1.2764,1.75545 -1.12688,0.7893 -0.90009,1.54816 0.43822,1.46606 1.41867,-0.087 2.81315,0.3405 2.54196,0.77928 -0.11128,0.18006 -0.64068,0.32763 -1.17667,0.32763 -1.1442,0 -3.7022,1.16106 -3.34501,1.51825 0.1351,0.1351 0.6062,0.24546 1.04748,0.24546 0.44128,0 0.90855,0.17163 1.03818,0.38138 0.12963,0.20977 0.6151,0.28592 1.079,0.16949 0.7135,-0.17908 0.84388,-0.0814 0.84388,0.63304 0,0.46452 0.0989,1.34084 0.22014,1.94717 0.18122,0.90612 0.38916,1.10226 1.16737,1.10226 0.52074,0 1.25479,0.23292 1.63142,0.51779 0.37664,0.28487 1.40747,0.52317 2.2903,0.52917 1.45371,0.0102 2.45153,0.45868 2.45153,1.10123 0,0.13362 -0.59531,0.35391 -1.32291,0.48989 -0.72761,0.13597 -1.48132,0.36995 -1.67535,0.51986 -0.19402,0.14991 -0.77403,0.37284 -1.28881,0.49558 -0.97709,0.23299 -5.94331,4.81788 -5.94331,5.487 0,0.21132 -0.23432,0.38448 -0.52038,0.38448 -1.10675,0 -1.70187,2.06473 -1.45366,5.04103 0.21539,2.5827 -0.0148,4.1996 -0.83871,5.89525 -0.14142,0.29104 -0.6586,0.57745 -1.14928,0.63665 -0.6934,0.0836 -1.27481,-0.30723 -2.61018,-1.75441 -2.44697,-2.65186 -3.57794,-3.74849 -6.03322,-5.84977 -1.77549,-1.5195 -2.40138,-1.85209 -3.48558,-1.85209 -1.53796,0 -3.57283,-0.66305 -3.79253,-1.23558 -0.3328,-0.86726 0.26613,-2.34219 1.22886,-3.02772 1.34852,-0.96023 1.28147,-1.38131 -0.2191,-1.38131 -0.89526,0 -1.23455,-0.1546 -1.23455,-0.56276 0,-0.30962 -0.26967,-1.01993 -0.59945,-1.5782 -0.57424,-0.97212 -0.5694,-1.04868 0.12351,-1.81797 1.44179,-1.60094 1.42086,-1.81063 -0.16175,-1.59836 -1.67419,0.22455 -2.01636,-0.0535 -2.36626,-1.92598 -0.2314,-1.23831 -0.14417,-1.40776 1.59008,-3.09697 1.24734,-1.21494 1.76492,-1.9688 1.61696,-2.35437 -0.19784,-0.51555 -0.27816,-0.51207 -0.88109,0.0336 -0.80244,0.72621 -1.29118,0.18561 -0.74879,-0.82786 0.29471,-0.55064 0.61572,-0.65019 1.5844,-0.49299 1.04956,0.17032 1.36001,0.038 2.28255,-0.97204 0.77923,-0.85315 1.38022,-1.17469 2.22415,-1.18959 1.1006,-0.0195 1.16167,-0.0915 1.26349,-1.48931 0.11603,-1.59291 0.73998,-2.11498 1.82986,-1.53169 0.63137,0.33792 0.63069,0.40272 -0.0222,2.18901 -0.81364,2.22603 -0.45646,2.88303 0.99322,1.82573 0.53491,-0.39013 1.2611,-0.81687 1.61386,-0.94826 0.50786,-0.18917 0.61807,-0.54719 0.52917,-1.72031 -0.10681,-1.41036 -0.0554,-1.49777 1.06505,-1.82521 0.40053,-0.11706 0.68881,-0.1762 0.90692,-0.17312 z m 17.02893,24.49825 c 2.08667,-0.0447 2.64784,0.61632 1.17151,1.37976 -1.02402,0.52954 -6.77818,1.24606 -6.34949,0.79065 0.774,-0.82225 3.92597,-2.14361 5.17798,-2.17041 z m -3.9057,5.56193 c 0.12422,-0.009 0.24907,0.11134 0.45217,0.35605 0.249,0.30006 0.35048,0.71163 0.22531,0.91416 -0.2744,0.44397 -1.13014,0.48528 -1.38855,0.0672 -0.10225,-0.16545 0.0155,-0.5765 0.262,-0.91364 0.20105,-0.27494 0.32485,-0.41446 0.44907,-0.42375 z m 5.92573,1.99109 c 0.51973,0 0.94838,0.32007 1.21647,0.90848 0.44102,0.96793 0.24118,1.71946 -0.35864,1.34875 -0.50455,-0.31183 -2.05879,0.578 -2.05879,1.17874 0,0.38043 0.50276,0.47416 2.17972,0.40566 1.94773,-0.0795 2.21675,-0.007 2.52491,0.68368 0.44628,1.00015 0.14028,1.26924 -1.45935,1.28364 -1.71332,0.0154 -1.75569,0.91662 -0.0703,1.49138 1.83634,0.62622 3.15862,0.56572 3.42512,-0.15658 0.35821,-0.97088 0.86741,-1.13409 1.89032,-0.60513 0.81542,0.42168 0.97644,0.77518 1.15445,2.53215 0.11379,1.12301 0.37148,2.91503 0.57258,3.98218 0.20109,1.06715 0.4982,2.68589 0.65991,3.5972 0.16172,0.9113 0.51277,1.9204 0.78031,2.24276 0.41827,0.50398 0.4018,0.64802 -0.11834,1.02836 -0.56683,0.41447 -0.56066,0.49897 0.10129,1.34049 0.38853,0.49394 0.70641,1.11335 0.70641,1.37666 0,0.26331 0.31159,1.0603 0.69247,1.77095 0.49818,0.92949 0.72095,2.1354 0.79375,4.29689 0.11179,3.31784 -0.26653,4.26017 -1.35186,3.36414 -0.4658,-0.38454 -0.6354,-0.39731 -0.75034,-0.0558 -0.44602,1.32521 -1.61175,-0.62159 -1.24488,-2.07895 0.11514,-0.45739 0.50165,-1.21003 0.85886,-1.67276 0.78849,-1.0214 0.84984,-3.38543 0.1204,-4.62659 -0.28508,-0.48507 -0.6116,-1.13393 -0.72605,-1.44178 -0.20325,-0.54668 -2.96378,-2.08617 -3.74086,-2.08617 -0.21509,0 -0.78949,0.42959 -1.2764,0.95498 l -0.88522,0.95549 -0.94516,-1.13171 c -0.6576,-0.7877 -1.24979,-1.13171 -1.94924,-1.13171 -1.51401,0 -2.28132,-0.87236 -2.04535,-2.32648 0.14877,-0.91679 -0.0772,-1.76402 -0.93845,-3.51348 -0.62417,-1.26786 -1.43908,-2.49485 -1.81074,-2.72696 -1.61144,-1.00635 -0.17376,-2.12735 2.29444,-1.78904 0.8888,0.12186 1.60621,0.0808 1.59421,-0.0909 -0.0273,-0.39065 -2.95762,-2.54858 -3.99769,-2.94401 -0.42463,-0.16145 -0.98174,-0.5468 -1.23816,-0.85576 -0.39564,-0.47672 -0.36696,-0.59255 0.19068,-0.76739 1.29202,-0.40508 1.71548,-0.77603 1.72548,-1.51102 0.006,-0.41025 0.20438,-0.93973 0.44132,-1.17667 0.23693,-0.23693 0.43046,-0.64111 0.43046,-0.89814 0,-0.53041 1.41313,-1.15549 2.61224,-1.15549 z m -29.58165,0.70539 c 1.58915,0 1.4913,0.63867 -0.22893,1.49345 -2.40668,1.19588 -4.41922,1.13063 -3.64732,-0.11834 0.3874,-0.62683 2.49665,-1.37511 3.87625,-1.37511 z m 36.27479,0.47129 c 0.29529,-0.004 0.61279,0.0672 0.91208,0.22737 0.86141,0.46101 0.92154,0.91211 0.16072,1.20406 -1.1898,0.45657 -2.26395,0.23464 -2.26395,-0.46767 0,-0.58294 0.54151,-0.9549 1.19115,-0.96376 z m -32.12208,2.76882 c 0.3287,-0.0173 0.73178,0.17694 0.8568,0.55242 0.0861,0.25865 -0.15699,0.4408 -0.58808,0.4408 -0.43333,0 -0.73535,-0.22775 -0.73535,-0.555 0,-0.28367 0.21098,-0.4248 0.46663,-0.43822 z m -1.36064,3.38222 c 0.46797,-0.0141 0.87174,0.21049 1.29347,0.65939 0.62118,0.6612 1.02921,0.80687 1.79007,0.63976 0.78859,-0.17321 0.99653,-0.0875 1.03973,0.42891 0.12033,1.44015 -0.0783,3.38283 -0.40876,4.00027 -0.44207,0.82595 -0.45873,3.06339 -0.0248,3.33158 0.17949,0.11093 0.73618,0.0151 1.23661,-0.2129 0.50043,-0.22798 1.0027,-0.32126 1.11621,-0.20774 0.11351,0.11351 0.29118,1.52824 0.39481,3.14399 0.19747,3.07878 1.05961,5.23069 2.096,5.23069 0.79253,0 0.41185,1.21736 -0.41806,1.33687 -0.43269,0.0623 -0.9878,0.68046 -1.42421,1.58595 -0.79309,1.64554 -1.64329,2.02 -2.60656,1.14825 -0.59917,-0.54224 -0.72254,-0.47752 -2.05258,1.07849 -2.40164,2.80968 -2.21758,4.5045 0.86661,7.99227 0.6439,0.72816 1.17047,1.50963 1.17047,1.73633 0,0.2267 0.25374,0.69248 0.56379,1.03508 0.31006,0.34261 0.45975,0.79162 0.33228,0.99787 -0.30728,0.49719 -0.59898,0.47311 -1.44487,-0.11937 -0.3882,-0.27191 -1.09512,-0.54993 -1.57097,-0.61753 -1.16734,-0.16594 -2.77119,-3.10744 -2.79879,-5.13302 -0.0111,-0.81516 -0.24212,-2.33341 -0.51315,-3.37396 -0.27103,-1.04056 -0.41337,-2.30531 -0.31677,-2.81068 0.18408,-0.96296 -0.71815,-2.03206 -2.4319,-2.88148 -0.9711,-0.48133 -1.62693,-2.64823 -1.66863,-5.51284 -0.0291,-1.99572 0.63074,-3.51813 1.52497,-3.51813 0.25036,0 0.82123,-0.31733 1.26866,-0.70538 0.44743,-0.38806 0.94774,-0.70539 1.11208,-0.70539 0.16434,0 0.2992,-0.16814 0.2992,-0.37362 0,-0.20545 -0.16297,-0.27322 -0.36173,-0.15038 -0.19876,0.12306 -0.83342,0.11935 -1.41077,-0.007 -1.40376,-0.30831 -1.36002,-1.25569 0.0966,-2.08928 1.36431,-0.78074 2.7342,-1.97293 2.7342,-2.3797 0,-0.16021 -0.36644,-0.29145 -0.81442,-0.29145 -0.44799,0 -1.11659,-0.22038 -1.48518,-0.4899 -0.64085,-0.46861 -0.61802,-0.53452 0.5209,-1.49965 0.98609,-0.83562 1.69379,-1.24792 2.29546,-1.26607 z m 13.09171,0.12403 c 0.93443,0.0144 1.43888,0.74392 2.0097,2.65255 0.39773,1.32989 1.20029,2.79143 2.20503,4.01629 1.35636,1.65349 1.57907,2.15024 1.57407,3.51555 -0.007,1.92422 -0.17102,2.17669 -1.78387,2.73885 -1.56096,0.54407 -1.35811,0.56063 -2.64015,-0.22118 -1.86048,-1.13454 -2.97962,-6.08866 -1.69602,-7.50703 0.53778,-0.59424 0.52385,-0.68079 -0.19896,-1.26608 -0.48458,-0.3924 -0.85029,-1.18325 -0.9741,-2.10633 -0.1863,-1.38901 -0.13924,-1.49261 0.78238,-1.72392 0.26754,-0.0671 0.50628,-0.10202 0.72192,-0.0987 z m 5.43895,15.58561 c 0.22295,-0.007 0.49743,0.13072 0.97513,0.37775 0.60998,0.31543 1.23597,0.79681 1.39113,1.06919 0.15517,0.27238 0.67705,0.54981 1.16014,0.61701 0.54485,0.0758 0.92638,0.39019 1.00459,0.82786 0.16631,0.93051 1.80153,2.64583 2.52232,2.64583 0.59942,0 1.41594,0.65062 1.41594,1.12862 0,0.15522 -0.94329,0.28267 -2.096,0.28267 -1.15272,0 -2.19554,0.1608 -2.31717,0.3576 -0.4789,0.77488 -2.96108,1.7481 -3.95273,1.54977 -0.60851,-0.1217 -1.76058,0.0878 -2.93264,0.5333 -1.06183,0.40358 -1.983,0.73372 -2.0469,0.73381 -0.35133,5.4e-4 0.46823,-2.40195 1.02784,-3.01274 0.56841,-0.62039 0.60697,-0.91048 0.2775,-2.10374 -0.2992,-1.0836 -0.28372,-1.41731 0.0718,-1.53583 0.47365,-0.15788 1.22625,-0.93411 2.57091,-2.65203 0.43975,-0.56183 0.64145,-0.81014 0.92811,-0.81907 z m 9.49347,10.17199 c 0.31761,-0.002 0.38654,0.20747 0.38654,0.79271 0,0.50769 -0.1338,0.92294 -0.29765,0.92294 -0.16385,0 -0.75916,0.3973 -1.32292,0.88264 -1.58058,1.36071 -3.08209,1.93941 -5.02915,1.93941 -1.41034,0 -1.97838,0.18356 -2.73213,0.88212 -1.07914,1.0001 -2.00238,1.08859 -3.406,0.32711 -1.02201,-0.55444 -1.27094,-1.5835 -0.52916,-2.18746 0.24254,-0.19747 1.77924,-0.62984 3.41529,-0.96118 1.63604,-0.33134 3.46184,-0.806 4.05712,-1.05472 0.95517,-0.39908 2.37957,-0.81576 5.05085,-1.47743 0.16776,-0.0415 0.30135,-0.0655 0.40721,-0.0661 z m 3.88866,1.90686 c 0.0316,-7.6e-4 0.0622,0.008 0.0915,0.0258 0.55462,0.34278 0.0522,6.78251 -0.60771,7.78971 -0.58987,0.90026 -0.68868,2.78105 -0.1633,3.10575 0.19403,0.11992 0.35243,-0.11297 0.35243,-0.51728 0,-0.45158 0.32727,-0.85931 0.84801,-1.0573 0.46622,-0.17726 0.9517,-0.49061 1.07901,-0.6966 0.12732,-0.206 0.36117,-0.37465 0.51986,-0.37465 0.45511,0 1.65443,3.10803 2.28255,5.9154 0.51139,2.28555 0.51653,2.67466 0.0481,3.58066 -0.73019,1.41204 -3.22824,3.47157 -4.55424,3.75481 -0.60784,0.12984 -1.28595,0.38117 -1.50689,0.55862 -0.24368,0.19576 -1.00656,0.18593 -1.93993,-0.0248 -0.84621,-0.19104 -1.58668,-0.21017 -1.64538,-0.0429 -0.0587,0.16728 -0.41589,0.66037 -0.79375,1.09605 -0.37787,0.43569 -0.6873,0.88772 -0.6873,1.00459 0,0.11686 -0.59531,0.4253 -1.32291,0.68523 -1.76102,0.62909 -3.5325,0.77929 -4.97076,0.42168 -1.24248,-0.30893 -3.58376,-2.31315 -3.58376,-3.06803 0,-0.24436 -0.40649,-1.04272 -0.90279,-1.77405 -0.49629,-0.73133 -0.82835,-1.61122 -0.73845,-1.95492 0.0899,-0.3437 -0.13857,-1.41915 -0.50747,-2.39003 -0.59465,-1.56499 -0.60718,-1.76527 -0.1111,-1.76527 0.30776,0 0.97751,0.47625 1.48828,1.05833 1.05151,1.19832 1.82986,1.37191 1.82986,0.40773 0,-0.70803 -1.04056,-1.81849 -1.70377,-1.81849 -0.22726,0 -0.41289,-0.48697 -0.41289,-1.08159 0,-0.59462 -0.33947,-1.8694 -0.75396,-2.8329 -0.41449,-0.96351 -0.6504,-1.85488 -0.52452,-1.98076 0.12588,-0.12589 0.78799,0.038 1.47123,0.3638 1.43967,0.68653 4.41076,0.78635 5.02812,0.16898 0.67415,-0.67419 1.38924,0.21328 0.77153,0.95757 -0.39976,0.48168 -0.33658,0.69643 0.43149,1.46451 0.77772,0.77772 1.09298,0.86735 2.32079,0.65991 0.78135,-0.13201 1.70159,-0.4456 2.04484,-0.6966 0.54999,-0.40216 0.56947,-0.58783 0.16588,-1.56218 -0.32314,-0.78013 -0.69389,-1.10536 -1.25935,-1.10536 -1.27585,0 -1.34602,-0.96846 -0.15452,-2.1332 0.58617,-0.57299 1.2158,-1.0418 1.39888,-1.0418 0.18308,0 1.49865,-0.5461 2.92386,-1.21336 2.3782,-1.11343 2.62686,-1.332 3.02359,-2.65617 0.23046,-0.76924 0.5036,-1.22566 0.72502,-1.23093 z"
       sodipodi:nodetypes="scsssssssssssssssssssccccssssssssscssssscscsssccsssssssssssssssssscssssssssssssssssscsssssssscssssscssscsscsssscsssssssssssssssssssssssssscccssssssssscsssssssssssssssssssscssssssssssssssscsssssssssccssssssssscssssssssssssssssssssssssssssssssscssssscsssssssssssssssssssssssssssssssssssssssssscs" /><path
       id="path4-3-7"
       style="fill:#00646f;fill-opacity:1"
       d="m 218.97717,359.10264 c -0.0927,0 -0.16021,0.002 -0.21705,0.006 l -2.17609,0.002 -7.70909,0.006 -1.55236,1.05214 c -0.85382,0.57855 -1.82236,1.05161 -2.15232,1.05161 -0.32996,0 -1.30311,0.37368 -2.16215,0.83044 -0.85905,0.45676 -2.52316,1.07439 -3.69796,1.37253 -1.17481,0.29815 -3.23392,1.01826 -4.57595,1.5999 -1.34203,0.58163 -2.83354,1.17655 -3.31453,1.3224 -0.96331,0.29209 -4.59351,3.2889 -4.59351,3.79202 0,0.65494 -2.29228,3.47262 -3.74758,4.60643 -2.22201,1.73116 -4.23274,4.29586 -5.71645,7.29051 -0.72099,1.45521 -1.78377,3.43941 -2.36161,4.40955 l -1.05058,1.76372 0.0522,5.94537 c 0.0289,3.26983 0.21462,6.60358 0.4129,7.40834 0.19828,0.80475 0.54691,2.41545 0.77463,3.57962 0.22772,1.16416 0.61223,2.43451 0.85421,2.82257 0.47026,0.75415 0.66572,1.6896 1.4087,6.74946 0.26022,1.77216 0.9039,4.31233 1.43092,5.64462 1.3119,3.31639 4.82195,8.91311 6.34121,10.11101 1.53959,1.21395 2.16701,2.6255 3.01776,6.15879 1.36926,5.68669 1.93506,7.36557 3.19355,9.6177 0.37467,0.64549 1.10994,2.1449 1.46406,2.92386 0.80531,1.77142 1.12796,1.46627 0.87088,-0.37176 -0.10177,-0.72761 -0.29572,-1.7593 -0.43098,-2.29288 -0.18249,-0.71988 -0.11608,-0.96997 0.25735,-0.96997 0.65032,0 3.45922,4.23317 3.45922,5.21312 0,0.41196 0.20812,0.87579 0.4625,1.03095 0.25438,0.15516 1.06747,1.37384 1.80661,2.70836 0.73914,1.33452 2.95212,4.32555 4.91753,6.64662 1.9654,2.32107 4.25627,5.34496 5.09116,6.71949 4.11413,6.77333 7.82284,9.78547 13.12685,10.66085 0.87057,0.14368 1.82098,0.39699 2.11202,0.56327 v 0.001 c 0.35363,0.20204 1.87756,0.28503 3.40392,0.28681 0.12032,0.002 0.14165,0.0109 0.27182,0.0119 0.11802,8.7e-4 0.23402,0.001 0.34778,0.001 0.6693,-6.5e-4 1.25945,-0.0178 1.70481,-0.047 0.0298,8.2e-4 0.0608,0.002 0.093,0.002 0.46053,0.006 0.7327,-0.0392 0.70796,-0.10594 0.0386,-0.0136 0.0595,-0.0276 0.062,-0.0424 0.17106,-0.0343 0.30168,-0.0731 0.38085,-0.11627 0.33692,-0.18367 1.48567,-0.60398 2.55282,-0.93431 2.8449,-0.88061 5.52188,-2.47723 7.73492,-4.48552 0.0423,-0.0358 0.0746,-0.0686 0.11473,-0.10387 1.66106,-1.52997 3.06065,-3.28657 4.02146,-5.18263 1.49045,-2.94127 2.61289,-6.18028 2.19056,-6.32106 -0.50988,-0.16996 -1.34899,-2.66326 -1.35599,-4.02662 -0.005,-1.08912 -0.73353,-2.10816 -1.18442,-1.65727 -0.12767,0.12767 -0.2331,1.59486 -0.2341,3.26027 -0.003,4.06497 -0.49988,6.84844 -1.61695,9.05629 -1.10225,2.17855 -1.98517,2.88483 -5.46479,4.3708 -6.69953,2.86104 -8.08483,3.28176 -10.11566,3.07216 -2.61918,-0.27033 -5.30492,-1.65716 -7.20576,-3.7207 -0.86823,-0.94254 -1.73863,-1.77567 -1.93425,-1.85157 -0.56535,-0.21926 -2.85354,-4.95192 -3.05149,-6.31124 -0.0989,-0.6791 -0.51354,-2.00697 -0.92139,-2.95073 -0.67288,-1.55708 -0.83061,-1.69902 -1.70326,-1.5322 -1.29704,0.24795 -1.72566,-0.03 -4.54132,-2.94349 -2.81882,-2.91678 -2.89116,-3.03138 -4.53564,-7.21403 -0.89146,-2.26741 -1.46631,-3.2948 -2.84014,-4.84312 -0.51778,-0.65769 -1.06466,-1.26708 -1.56321,-1.73064 -1.04611,-1.23961 -1.95413,-2.56933 -2.35593,-3.48041 -0.47062,-1.06715 -0.99749,-2.25778 -1.17099,-2.64583 -0.1735,-0.38806 -0.4176,-1.32397 -0.5426,-2.07946 -0.125,-0.75548 -0.45893,-1.60511 -0.74207,-1.88826 -0.3476,-0.34759 -0.49469,-1.16173 -0.45269,-2.50682 0.0342,-1.09568 -0.12774,-2.6273 -0.35967,-3.40341 -0.23192,-0.77611 -0.45326,-1.88702 -0.49196,-2.4691 -0.0635,-0.95437 0.0337,-1.06019 0.98806,-1.06919 1.01656,-0.01 1.07242,-0.0935 1.41128,-2.11666 0.19402,-1.15845 0.50856,-2.34395 0.69918,-2.63499 0.19062,-0.29104 0.58768,-1.00317 0.88212,-1.58233 0.29445,-0.57916 1.16164,-1.40194 1.92753,-1.82831 1.36669,-0.76082 6.41756,-1.88306 8.4677,-1.88206 0.80943,5.6e-4 0.94679,-0.0935 0.61753,-0.42271 -0.23283,-0.23283 -0.42323,-0.67365 -0.42323,-0.97978 0,-0.30613 -0.27798,-0.81896 -0.61753,-1.13947 -0.33955,-0.32051 -0.8069,-0.8157 -1.0387,-1.10071 -0.5851,-0.71945 -3.67172,-1.08731 -5.20278,-0.62011 -0.38899,0.11869 -0.92678,0.28203 -1.45262,0.44131 -0.73813,0.1284 -1.32678,0.31808 -2.03761,0.68885 -0.75435,0.32569 -1.69588,0.79591 -2.45824,1.23868 -1.12605,0.65401 -2.11792,1.18908 -2.20452,1.18908 -0.0866,0 -0.15761,-0.36167 -0.15761,-0.80357 0,-0.4419 -0.21839,-1.11641 -0.48525,-1.49913 -0.18893,-0.27097 -0.35757,-0.69826 -0.50694,-1.28675 -0.23005,-0.90632 -0.41412,-2.1948 -0.55604,-3.884 -0.0174,-0.20734 -0.0345,-0.42082 -0.0506,-0.64027 -0.0667,-0.90664 -0.19488,-2.14758 -0.30644,-2.9931 -0.0197,-0.14968 -0.0391,-0.2874 -0.0574,-0.40824 -3e-5,-1.9e-4 2e-5,-3.3e-4 0,-5.2e-4 -0.0386,-0.25517 -0.0613,-0.48918 -0.0682,-0.70642 0,-1.7e-4 1e-5,-3.3e-4 0,-5.1e-4 -0.003,-0.10851 -0.003,-0.21281 0.002,-0.31316 1e-5,-1.8e-4 -10e-6,-3.4e-4 0,-5.2e-4 4.1e-4,-0.009 0.002,-0.017 0.003,-0.0258 0.009,-0.1718 0.0309,-0.33184 0.0646,-0.48317 0.004,-0.0165 0.006,-0.0343 0.01,-0.0506 4e-5,-1.7e-4 -4e-5,-3.6e-4 0,-5.2e-4 0.006,-0.0262 0.0161,-0.0503 0.0233,-0.076 0.0165,-0.0593 0.0325,-0.11902 0.0532,-0.1757 0.0296,-0.0811 0.0632,-0.15976 0.10129,-0.23617 6e-5,-1.3e-4 -7e-5,-3.8e-4 0,-5.1e-4 0.0381,-0.0764 0.0808,-0.15062 0.12764,-0.22324 8e-5,-1.3e-4 -8e-5,-4e-4 0,-5.2e-4 0.0301,-0.0467 0.052,-0.10097 0.0806,-0.14935 0.4621,-0.78068 0.73477,-1.75192 0.74414,-2.47065 0.008,-0.48844 -0.10005,-0.85658 -0.34416,-0.95859 -0.003,-10e-4 -0.006,-0.003 -0.009,-0.004 -0.004,-0.002 -0.008,-0.003 -0.0124,-0.005 -0.005,-0.002 -0.009,-0.003 -0.0134,-0.005 -0.36603,-0.16574 -0.43754,-1.09791 -0.40049,-3.54604 0.004,-0.33432 -0.007,-0.50122 0.003,-0.91209 0.0742,-2.9942 0.18631,-4.96448 0.40824,-6.19084 0.0247,-0.0795 0.0384,-0.15244 0.0419,-0.21704 0.22258,-1.08069 0.5448,-1.55587 1.02216,-1.73736 0.45807,-0.17416 0.83251,-0.53477 0.83251,-0.8015 0,-0.71567 1.97146,-3.31045 2.88768,-3.8008 0.43611,-0.2334 1.53574,-0.39797 2.44378,-0.36587 0.90804,0.0321 2.07685,-0.10341 2.59725,-0.30127 0.80766,-0.30708 0.91388,-0.50552 0.72709,-1.35599 -0.19692,-0.89656 -0.0845,-1.05349 1.11931,-1.56787 0.73574,-0.31438 1.7822,-0.55968 2.32596,-0.54518 0.55242,0.0147 1.3411,-0.30459 1.78697,-0.72347 0.43889,-0.41231 0.99371,-0.74983 1.233,-0.74983 0.2393,0 0.82606,-0.4214 1.3038,-0.93689 0.47773,-0.51548 0.98604,-0.81578 1.12964,-0.66715 0.14359,0.14864 -0.0962,0.51007 -0.53278,0.80357 -0.43656,0.2935 -0.79375,0.80045 -0.79375,1.12603 0,0.32559 -0.18795,0.77964 -0.41755,1.00924 -0.22962,0.2296 -0.33822,0.49687 -0.24132,0.59377 0.18516,0.18515 0.80298,0.0237 4.53925,-1.18598 2.65568,-0.85983 3.25692,-0.8944 4.93924,-0.28319 2.05154,0.74536 3.25094,1.48004 3.48506,2.12804 0.0191,0.0992 0.0295,0.20193 0.0315,0.30851 0.005,0.29745 0.16967,0.67402 0.37827,0.88935 0.024,0.0257 0.0487,0.049 0.0739,0.0693 2.09833,1.68647 2.88849,2.46474 3.05666,3.07319 0.0119,0.0431 0.021,0.0855 0.0269,0.12713 5e-5,3.2e-4 -5e-5,7.1e-4 0,0.001 0.006,0.0416 0.009,0.0828 0.009,0.12351 v 0.001 c 2.2e-4,0.0257 0.002,0.0522 0.005,0.0801 6e-5,5.3e-4 -6e-5,0.001 0,0.002 0.003,0.0278 0.008,0.0567 0.0139,0.0863 7e-5,3.5e-4 -7e-5,6.9e-4 0,0.001 0.0121,0.06 0.0297,0.12364 0.0522,0.18966 0.13543,0.39827 0.4487,0.88639 0.81029,1.22938 0.33806,0.32066 0.63344,0.75031 0.77928,1.10691 0.0486,0.11886 0.0804,0.22972 0.092,0.32556 0.003,0.0259 0.005,0.0508 0.005,0.0744 v 10e-4 c 0,0.0475 0.006,0.0963 0.0165,0.14521 0.0149,0.0675 0.0399,0.13549 0.0729,0.20257 0.13198,0.26833 0.39693,0.5193 0.70435,0.63924 0.86117,0.33596 2.06247,1.37171 2.89078,2.42 7e-5,10e-5 -8e-5,4.2e-4 0,5.2e-4 0.2761,0.34947 0.51059,0.7007 0.67747,1.02733 0.27744,0.543 0.67845,1.09644 0.95343,1.33067 1.7e-4,1.4e-4 3.5e-4,3.7e-4 5.2e-4,5.1e-4 0.0194,0.0165 0.0383,0.0312 0.0563,0.0444 1.8e-4,1.4e-4 3.3e-4,3.9e-4 5.2e-4,5.2e-4 0.0183,0.0133 0.0355,0.0249 0.0522,0.0346 0.0318,0.0185 0.066,0.0443 0.10232,0.0765 0.0363,0.0322 0.0745,0.0709 0.11472,0.11575 0.45323,0.50783 1.14364,1.78937 1.6986,3.03651 0.55292,1.24512 0.9713,2.45748 0.88522,2.83703 -1.5e-4,5.8e-4 -3.7e-4,0.002 -5.2e-4,0.002 -6.4e-4,0.003 -0.001,0.006 -0.002,0.008 -7.8e-4,0.003 -0.001,0.006 -0.002,0.009 -0.007,0.0292 -0.0121,0.0604 -0.0155,0.093 -0.0499,0.47322 0.28687,1.30284 0.92759,2.27015 0.69906,1.0554 1.09761,2.10108 1.09761,2.88148 v 1.18855 c -0.0188,0.0108 -0.0387,0.021 -0.0589,0.0305 l -2.39262,-0.22221 c -0.2966,-0.0276 -0.59896,-0.0465 -0.89504,-0.0579 -0.63481,-0.093 -1.09187,-0.0948 -1.66398,0.0284 -0.31425,0.029 -0.56108,0.0729 -0.70383,0.13074 -0.44662,0.18085 -2.30652,0.77626 -4.13308,1.32343 -3.23107,0.9679 -3.33843,1.03457 -3.96462,2.44792 -0.35399,0.79899 -0.88389,1.65155 -1.17719,1.89497 -0.2933,0.24342 -0.5333,0.66134 -0.5333,0.92863 0,0.77105 2.1106,0.58919 4.99349,-0.43047 4.6824,-1.65613 7.20241,-1.72634 10.35234,-0.28835 0.77611,0.35431 2.44005,0.73044 3.69745,0.83612 2.17049,0.18243 2.30217,0.24581 2.60088,1.25057 0.17304,0.58209 0.53317,1.47971 0.80046,1.99471 0.26729,0.51501 0.48628,1.48266 0.48628,2.15026 0,0.75915 0.25986,1.44936 0.69401,1.84226 0.45806,0.41454 0.68683,1.06268 0.67283,1.90635 -0.0117,0.7032 0.43033,2.91189 0.98185,4.90771 0.82941,3.00143 0.91837,3.68037 0.51625,3.92896 -0.26739,0.1653 -0.37705,0.47703 -0.24391,0.69246 0.15423,0.24953 -0.0418,0.35976 -0.54002,0.30386 -0.26526,-0.0297 -0.44046,-0.0427 -0.55294,0.11575 -0.035,-0.0182 -0.0635,-0.0279 -0.0837,-0.0279 -0.12669,-1.2e-4 -0.14595,0.84368 -0.0956,2.0593 0.004,0.491 0.0156,1.09045 0.03,1.82211 0.0438,2.23132 0.25412,4.7715 0.46715,5.64462 0.21304,0.87313 0.47978,3.17517 0.59325,5.11545 0.18854,3.22382 0.26733,3.52743 0.91209,3.52743 0.63753,0 0.69413,-0.1955 0.58704,-2.0283 -0.0704,-1.20494 0.0257,-2.0283 0.23668,-2.0283 0.35261,0 0.54052,1.72657 1.03559,9.525 l 0.25735,4.0566 1.55185,-5.11493 c 0.85357,-2.8134 1.75323,-6.06795 1.99936,-7.23212 0.56634,-2.67863 0.75633,-7.60286 0.31987,-8.29355 -0.18272,-0.28913 -0.35792,-1.71669 -0.38912,-3.1719 -0.0312,-1.45521 -0.18465,-4.15378 -0.34106,-5.99705 -0.37034,-4.36445 -0.28179,-8.82101 0.18448,-9.28728 0.25732,-0.25731 0.63862,-0.11671 1.25626,0.46353 0.051,0.048 0.0887,0.0739 0.13539,0.11473 0.0478,0.0442 0.0935,0.083 0.13694,0.11627 0.83054,0.66127 0.82591,-0.0297 -0.0481,-1.98179 -0.64955,-1.45092 -0.64922,-1.52308 0.0217,-3.75946 0.54188,-1.80624 0.60675,-2.51539 0.31315,-3.41013 -0.20386,-0.62126 -0.34639,-2.47868 -0.31729,-4.12792 0.0917,-5.18893 -0.45835,-9.40556 -1.54977,-11.88041 -0.24167,-0.54799 -0.9606,-1.73265 -1.59732,-2.63291 -0.63671,-0.90027 -1.37473,-2.32902 -1.64021,-3.175 -0.94291,-3.00463 -2.39316,-5.73597 -3.70624,-6.97994 -0.73227,-0.69373 -3.75125,-3.92142 -6.70915,-7.17269 -3.42603,-3.76582 -5.97564,-6.25152 -7.02438,-6.84919 -0.90545,-0.516 -1.96653,-1.22266 -2.35799,-1.56993 -0.39146,-0.34727 -2.08194,-1.2731 -3.75636,-2.05776 l -3.04426,-1.42678 -4.32015,0.004 c -0.30927,-0.003 -0.6385,-0.005 -0.9958,-0.005 z m -11.6148,15.67708 c -0.26055,-0.0105 -0.61415,0.10587 -1.09296,0.35347 -0.60438,0.31254 -1.09864,0.64336 -1.09864,0.73536 0,0.28293 0.96282,0.18622 1.97456,-0.19844 0.67087,-0.25508 0.85046,-0.47763 0.59273,-0.73536 -0.0966,-0.0967 -0.21936,-0.14873 -0.37569,-0.15503 z m 27.24537,34.05219 c -3.41848,-0.0737 -7.61527,0.84372 -9.89449,2.35024 -1.94849,1.28792 -2.46442,1.43092 -2.70785,0.74931 -0.0866,-0.24254 -0.2847,-0.32295 -0.43976,-0.17828 -0.0344,0.0321 -0.0525,0.18309 -0.0574,0.42271 -0.0682,0.0567 -0.10992,0.19035 -0.11007,0.41755 -2.8e-4,0.41678 0.17686,2.00874 0.37878,3.58789 0.16078,1.54952 0.36455,3.02991 0.52762,3.53725 0.0116,0.036 0.0284,0.0701 0.0496,0.10181 0.11347,0.21323 0.34387,0.28914 0.58963,0.25734 0.0428,-0.002 0.0861,-0.007 0.12919,-0.0155 0.15527,-0.0309 0.276,-0.093 0.36535,-0.19327 0.1817,-0.1382 0.3253,-0.33692 0.37207,-0.57981 0.0699,-0.36282 -0.0355,-0.99609 -0.23409,-1.40715 -0.0305,-0.0631 -0.0603,-0.12914 -0.0899,-0.19844 -0.20711,-1.26888 -0.58116,-2.90078 -0.85214,-3.59978 -0.44487,-1.14751 2.70804,-3.10326 3.34398,-2.07429 0.19247,0.31137 0.34062,0.32502 0.51211,0.0475 0.46368,-0.75024 1.58804,-0.39902 2.13992,0.66818 0.64289,1.24322 0.45442,1.21452 3.11247,0.46871 1.4346,-0.40253 2.15458,-0.79642 2.27118,-1.24231 0.11804,-0.45136 0.298,-0.54702 0.58291,-0.31057 0.48348,0.40126 4.08451,0.17002 4.5465,-0.29197 0.62808,-0.62808 -0.12028,-1.69177 -1.4764,-2.09807 -0.86678,-0.25969 -1.91975,-0.39451 -3.05924,-0.41909 z m -23.83162,4.68912 c -0.48303,0.0132 -0.71778,0.30471 -0.30334,0.80408 0.56975,0.68651 0.47928,0.74883 -1.42162,0.97669 -1.56084,0.1871 -3.49588,0.93522 -5.38624,1.81953 -0.52961,0.21988 -1.06427,0.47814 -1.60403,0.77049 -2.74254,1.49037 -5.00435,3.2383 -5.00435,4.32118 0,0.52491 0.19091,1.14486 0.42375,1.3777 0.54667,0.54667 0.46143,0.56614 1.9699,-0.45889 0.71384,-0.48507 1.55768,-0.8816 1.87482,-0.8816 0.31714,0 1.35159,-0.3022 2.29909,-0.67128 0.94751,-0.36908 2.24217,-0.8661 2.87682,-1.10432 1.07201,-0.40239 1.13806,-0.51867 0.92708,-1.64331 -0.19452,-1.03686 -0.12002,-1.23889 0.52141,-1.40663 0.41189,-0.10771 0.7488,-0.33011 0.7488,-0.49403 0,-0.39538 2.74138,-1.12255 3.18895,-0.84594 0.60961,0.37676 1.39733,2.67276 1.39733,4.0721 0,0.22981 0.0296,0.46744 0.0822,0.70383 0.10782,0.60956 0.32358,1.1046 0.66197,1.53479 0.0351,0.0446 0.0711,0.0881 0.10749,0.13023 0.41231,0.53803 0.89372,0.83608 1.24902,0.6165 0.53035,-0.32778 0.38654,-1.77816 -0.11111,-3.44527 -0.0874,-0.37758 -0.19678,-0.7309 -0.32659,-1.02526 -0.0303,-0.0688 -0.0624,-0.14183 -0.0956,-0.21859 -0.15592,-0.41161 -0.32739,-0.82292 -0.51057,-1.22163 -0.13441,-0.33066 -0.25993,-0.64689 -0.35553,-0.89762 -0.29833,-0.78241 -0.98978,-1.63037 -1.63866,-2.15853 -0.0608,-0.0534 -0.12118,-0.10293 -0.18138,-0.14728 -0.4879,-0.35935 -1.0139,-0.51724 -1.38958,-0.50694 z m 5.2927,13.6679 c -0.23247,0 -0.33894,0.4513 -0.30024,0.99322 0.0247,0.52047 0.16737,1.14067 0.41858,1.5875 l 0.43304,0.77049 0.12558,-0.8294 c 0.021,-0.13949 0.0328,-0.28499 0.0372,-0.43253 0.0188,-0.0845 0.0295,-0.18356 0.0295,-0.29663 0,-0.6946 -0.20553,-1.35998 -0.47026,-1.64589 -0.076,-0.0935 -0.15783,-0.14676 -0.24236,-0.14676 -0.006,0 -0.0106,9e-5 -0.016,5.1e-4 -0.005,-2.8e-4 -0.0101,-5.1e-4 -0.015,-5.1e-4 z m 13.73559,4.23333 c -0.3659,0 -0.67253,0.054 -0.96893,0.20257 -0.17482,0.0688 -0.32824,0.15051 -0.43615,0.23823 -0.13242,0.10764 -0.32095,0.32651 -0.53072,0.60255 -0.29531,0.35457 -0.62379,0.8205 -1.02061,1.42627 -0.57196,0.87312 -1.27785,1.78057 -1.56889,2.01693 -0.29105,0.23636 -0.37077,0.43373 -0.17674,0.43873 0.61267,0.0154 2.08387,-1.15779 3.85351,-3.0732 0.41917,-0.45369 0.73241,-0.79698 0.95188,-1.05626 0.63737,-0.70853 0.52916,-0.79199 -0.0372,-0.7953 -0.0134,-1.4e-4 -0.0274,-4.7e-4 -0.0413,-5.2e-4 -0.008,-3e-5 -0.0163,0 -0.0248,0 z m -11.59412,3.80494 c -0.37653,-0.009 -0.69058,0.062 -0.96377,0.20825 -0.097,0.0519 -0.18494,0.1019 -0.26406,0.15038 -0.12906,0.0624 -0.25179,0.13607 -0.36742,0.22118 -0.69413,0.51084 -0.64236,0.66587 1.13533,1.02009 0.3265,0.0902 0.7185,0.18352 1.17874,0.28319 3.24109,0.70188 3.33706,0.71297 4.01939,0.45113 0.38891,-0.14924 0.0625,-0.4594 -1.11725,-1.06092 -1.66168,-0.84721 -2.79261,-1.25387 -3.62096,-1.2733 z m 24.02179,3.61941 c -0.30717,0.004 -0.72554,0.45649 -0.72554,0.88677 0,0.27959 0.14196,0.5085 0.31523,0.5085 0.35761,0 0.84499,-1.0748 0.59893,-1.32085 -0.0526,-0.0526 -0.11774,-0.0754 -0.18862,-0.0744 z m -3.69022,4.78989 c -0.17528,-0.009 -0.57149,0.12345 -1.18029,0.4284 -0.54938,0.27519 -1.2723,0.57276 -1.82314,0.75706 -0.13686,0.0458 -0.26278,0.0844 -0.37311,0.1142 -0.0337,0.009 -0.066,0.0174 -0.0966,0.0248 -0.46075,0.11074 -0.84927,0.32971 -0.94671,0.51986 -0.0156,0.0237 -0.0238,0.0456 -0.0238,0.0661 h 5.1e-4 c 0,0.004 -3e-5,0.008 0,0.0114 -2.1e-4,0.003 -5.1e-4,0.007 -5.1e-4,0.01 0,0.007 8.2e-4,0.0147 0.002,0.0217 0.0158,0.38157 0.2708,0.36349 1.81591,-0.0656 0.45987,-0.12773 0.90445,-0.34257 1.19114,-0.55914 0.14853,-0.0822 0.29271,-0.16895 0.42891,-0.25941 0.97657,-0.64858 1.29828,-1.05459 1.00614,-1.06919 z m -9.06404,2.37867 c -0.0123,-8e-5 -0.0249,0.002 -0.0372,0.002 -0.008,2.4e-4 -0.0154,-9.5e-4 -0.0232,-5.2e-4 -0.006,3.3e-4 -0.0124,0.002 -0.0186,0.003 -0.0513,0.004 -0.10305,0.0101 -0.15451,0.0212 -0.0536,0.0116 -0.1065,0.0276 -0.15865,0.0465 -0.01,0.003 -0.0189,0.007 -0.0284,0.0109 -0.0463,0.018 -0.0913,0.0387 -0.13488,0.062 -0.005,0.003 -0.0104,0.005 -0.0155,0.008 -0.0479,0.0265 -0.0932,0.0561 -0.13591,0.0884 -0.0246,0.0186 -0.0489,0.0376 -0.0713,0.0579 -7.1e-4,6.4e-4 -0.001,10e-4 -0.002,0.002 -0.007,0.006 -0.0122,0.0125 -0.0186,0.0186 -0.017,0.0163 -0.0332,0.0329 -0.0486,0.0501 -0.0107,0.0121 -0.0211,0.0242 -0.031,0.0367 -0.0137,0.0173 -0.0262,0.0351 -0.0382,0.0532 -0.007,0.01 -0.0137,0.0194 -0.0196,0.0295 -0.001,0.002 -0.003,0.004 -0.004,0.007 -0.0114,0.0197 -0.0217,0.04 -0.031,0.0605 -0.001,0.003 -0.003,0.006 -0.004,0.009 -0.01,0.0229 -0.0184,0.046 -0.0253,0.0698 -0.007,0.0227 -0.0117,0.0458 -0.0155,0.0693 -7.4e-4,0.005 -0.001,0.009 -0.002,0.0139 -0.003,0.0238 -0.005,0.0479 -0.005,0.0724 0,0.0181 0.001,0.0356 0.004,0.0527 4.3e-4,0.003 0.002,0.006 0.002,0.009 0.005,0.0309 0.0134,0.0607 0.0258,0.0884 0.0272,0.0606 0.0706,0.11314 0.12661,0.15761 1e-4,9e-5 4.1e-4,-8e-5 5.1e-4,0 0.0139,0.011 0.0286,0.022 0.0439,0.032 0.0309,0.0202 0.0648,0.0383 0.10077,0.0543 0.072,0.032 0.15333,0.0555 0.23926,0.0703 0.0859,0.0148 0.17639,0.021 0.26768,0.0181 0.1371,-0.004 0.27534,-0.0289 0.4005,-0.0749 0.0832,-0.0305 0.16055,-0.0708 0.22789,-0.12041 0.017,-0.0125 0.0335,-0.0255 0.0491,-0.0393 0.0466,-0.041 0.0866,-0.0874 0.11886,-0.13953 0.0163,-0.0264 0.0299,-0.0543 0.0408,-0.0837 0.0109,-0.0294 0.0191,-0.0601 0.0248,-0.0915 0.0114,-0.0628 0.0124,-0.1288 0.004,-0.19379 -0.008,-0.0562 -0.0236,-0.11091 -0.0455,-0.1633 -0.003,-0.008 -0.006,-0.0171 -0.01,-0.0253 -0.002,-0.005 -0.005,-0.01 -0.008,-0.0145 -0.0122,-0.0242 -0.0255,-0.0481 -0.0408,-0.0703 -0.0185,-0.0268 -0.0391,-0.052 -0.062,-0.0749 -0.0191,-0.0191 -0.0397,-0.0363 -0.061,-0.0522 -0.016,-0.012 -0.0325,-0.0229 -0.0496,-0.0331 -7.3e-4,-4.4e-4 -0.001,-0.001 -0.002,-0.002 -0.0151,-0.009 -0.0307,-0.0167 -0.0465,-0.0243 -0.009,-0.004 -0.0178,-0.008 -0.0269,-0.0119 -0.0109,-0.005 -0.0219,-0.009 -0.0331,-0.0134 -0.005,-0.002 -0.0106,-0.004 -0.016,-0.006 -0.0113,-0.004 -0.0231,-0.007 -0.0346,-0.01 -0.0307,-0.008 -0.0618,-0.015 -0.0941,-0.0196 -0.006,-8.6e-4 -0.0117,-0.002 -0.0176,-0.003 -0.0197,-0.002 -0.0399,-0.003 -0.0599,-0.004 -0.0151,-8.3e-4 -0.0297,-0.003 -0.045,-0.003 z m -17.59738,3.05666 c -0.19801,0.003 -0.35967,0.15245 -0.35967,0.4346 0,0.24504 0.35719,0.61649 0.79375,0.82527 0.47553,0.22741 1.66065,0.29419 2.99362,0.24753 0.20238,0.17837 0.67316,0.20576 1.28261,0.0687 0.33751,-0.0759 0.82696,-0.18195 1.32136,-0.2868 1.29017,-0.17277 2.36732,-0.42801 2.67064,-0.71934 l 0.007,-0.007 c 0.0943,-0.0943 0.14364,-0.17371 0.14883,-0.23874 5.4e-4,-0.005 4.6e-4,-0.0101 5.2e-4,-0.015 0.002,-0.22219 -0.49654,-0.27609 -1.3746,-0.14573 -0.33766,0.0399 -0.73646,0.10139 -1.19476,0.18501 -0.37546,0.0685 -0.7074,0.12993 -0.99994,0.18551 -2.11099,0.24696 -4.53245,0.18752 -4.76715,-0.19223 -0.14448,-0.23378 -0.34721,-0.34491 -0.52193,-0.3421 z m -9.06611,2.03915 c 0.1251,-0.005 0.38092,0.26039 0.88987,0.84853 0.55151,0.63734 1.56493,2.03188 2.25257,3.09903 0.68765,1.06716 2.31374,2.97216 3.61322,4.23334 3.06793,2.97749 4.14852,4.5679 6.03942,8.89144 0.8557,1.95656 1.55546,3.61398 1.55546,3.68298 0,0.069 -0.23812,0.12558 -0.52916,0.12558 -0.29104,0 -0.52917,-0.15327 -0.52917,-0.34055 0,-0.18727 -0.47625,-0.88321 -1.05833,-1.54616 -0.58208,-0.66296 -1.05834,-1.3518 -1.05834,-1.53065 0,-0.17886 -0.57052,-0.87183 -1.26814,-1.54048 -1.54435,-1.48022 -3.26057,-3.85287 -4.86585,-6.7262 -0.36645,-0.65592 -1.1207,-1.71394 -1.67587,-2.35128 -0.55518,-0.63735 -1.00924,-1.30891 -1.00924,-1.49242 0,-0.18351 -0.55596,-1.20234 -1.23506,-2.26394 -0.6791,-1.0616 -1.23455,-2.26083 -1.23455,-2.66495 0,-0.27214 0.0219,-0.42035 0.11317,-0.42427 z m 11.08563,1.62678 c -0.15446,0.004 -0.26252,0.28956 -0.26252,0.73328 0,0.52589 0.15155,0.82954 0.35243,0.70539 0.19402,-0.11992 0.35295,-0.43725 0.35295,-0.70539 0,-0.26814 -0.15893,-0.58599 -0.35295,-0.7059 -0.0314,-0.0194 -0.0613,-0.0281 -0.0899,-0.0274 z"
       sodipodi:nodetypes="cccccsssssssscccsssssssssssssssssscccscccccssccsscscsssscsssssccssssssscsssscsssssccsssssscsscscscccsccsscscccccccccccssssssssssssssssssccccsscssscsccsscsscssscsscscssccsccccssccccccssssssssssssssssccccsssssccssssssccccsscssssssscccccsssscscssscscsccccsscsscssssssccsssccssssssssssscscscsccsccssscccccscscssscscsscscsssscscscssscsssssscssccccccscscsccccscsccccsscccsccccccccsccsscsssccscsssccccsssscccscsscccccsscsccscccscscccssssssssssssssscsssssss" /></g></svg>
