<?xml version="1.0" encoding="UTF-8" standalone="no"?>
<!-- Created with Inkscape (http://www.inkscape.org/) -->

<svg
   width="35.85104mm"
   height="35.85104mm"
   viewBox="0 0 35.85104 35.85104"
   version="1.1"
   id="svg1"
   xml:space="preserve"
   sodipodi:docname="favicon.svg"
   inkscape:version="1.4.2 (1:1.4.2+202505120737+ebf0e940d0)"
   xmlns:inkscape="http://www.inkscape.org/namespaces/inkscape"
   xmlns:sodipodi="http://sodipodi.sourceforge.net/DTD/sodipodi-0.dtd"
   xmlns="http://www.w3.org/2000/svg"
   xmlns:svg="http://www.w3.org/2000/svg"><sodipodi:namedview
     id="namedview1"
     pagecolor="#ffffff"
     bordercolor="#000000"
     borderopacity="0.25"
     inkscape:showpageshadow="2"
     inkscape:pageopacity="0.0"
     inkscape:pagecheckerboard="0"
     inkscape:deskcolor="#d1d1d1"
     inkscape:document-units="mm"
     inkscape:zoom="2.0000001"
     inkscape:cx="130.5"
     inkscape:cy="-10.75"
     inkscape:window-width="1920"
     inkscape:window-height="999"
     inkscape:window-x="3840"
     inkscape:window-y="0"
     inkscape:window-maximized="1"
     inkscape:current-layer="layer2" /><defs
     id="defs1" /><g
     inkscape:groupmode="layer"
     id="layer2"
     inkscape:label="shapes"
     transform="translate(-56.753124,-134.01146)"><rect
       style="fill:#d2d2d2;fill-opacity:1;stroke:none;stroke-width:0.1;stroke-miterlimit:7;stroke-opacity:1;paint-order:stroke fill markers"
       id="rect11"
       width="35.85104"
       height="35.85104"
       x="56.753124"
       y="134.01146"
       inkscape:export-filename="je_mine_45_1000.png"
       inkscape:export-xdpi="708.48706"
       inkscape:export-ydpi="708.48706" /><g
       id="g21"
       style="fill:#00646f;fill-opacity:1"
       transform="matrix(0.65800727,-0.65800727,0.65800727,0.65800727,-120.13269,77.221787)"><path
         id="path13-1-9-8"
         style="fill:#00646f;fill-opacity:1;stroke:none;stroke-width:0.1;stroke-miterlimit:7;stroke-opacity:1;paint-order:stroke fill markers"
         d="m 88.040299,183.8853 c -0.353504,9e-5 -0.693488,0.13586 -0.949813,0.3793 l -3.714501,3.7145 c 1.370724,0.24246 2.369785,1.43367 2.369881,2.82567 v 5.2e-4 27.99984 L 73.582784,206.64205 h 5.853906 c 1.444391,5e-5 2.615287,1.17095 2.615344,2.61534 v -2.61534 -3.67368 -2.61535 c -5.7e-5,1.4444 -1.170953,2.61529 -2.615344,2.61535 h -5.811531 c -2.034041,0.0165 -3.674262,1.67006 -3.674195,3.70417 0,0.96367 0.375562,1.88942 1.046965,2.58072 0.02534,0.0236 0.05101,0.0469 0.077,0.0698 l -0.0021,0.005 16.017626,16.01762 c 0.256325,0.24344 0.596309,0.37921 0.949813,0.37931 0.762017,-1e-5 1.379751,-0.61775 1.379761,-1.37976 V 185.2649 c -1e-5,-0.76202 -0.617744,-1.37975 -1.379761,-1.37976 z"
         sodipodi:nodetypes="cccscccccccccccccccccccc" /><path
         id="path13-1-1-7-1"
         style="fill:#00646f;fill-opacity:1;stroke:none;stroke-width:0.1;stroke-miterlimit:7;stroke-opacity:1;paint-order:stroke fill markers"
         d="m 94.474337,183.88541 a 1.3797789,1.3797789 0 0 0 -1.379761,1.37976 v 17.7028 3.67419 17.71934 a 1.3797789,1.3797789 0 0 0 1.379761,1.36322 1.3797789,1.3797789 0 0 0 0.949813,-0.37931 l 15.96698,-15.96646 a 0.45450735,0.45450735 0 0 0 0.12765,-0.31575 0.45450735,0.45450735 0 0 0 -0.45372,-0.45475 h -3.91346 a 0.45450735,0.45450735 0 0 0 -0.30282,0.11627 l -0.0233,0.0233 a 0.45450735,0.45450735 0 0 0 -0.009,0.0103 l -0.002,0.001 -10.045385,10.0459 v -12.16305 h 4.313945 a 2.615447,2.615447 0 0 1 2.56367,2.61483 v -0.64854 -1.96629 -5.1e-4 -3.67368 -1.96629 -0.64905 a 2.615447,2.615447 0 0 1 -2.61532,2.61534 H 96.769121 V 190.8049 l 10.045379,10.0459 0.002,0.001 a 0.45450735,0.45450735 0 0 0 0.009,0.0103 l 0.0232,0.0232 a 0.45450735,0.45450735 0 0 0 0.30282,0.11627 h 3.91346 a 0.45450735,0.45450735 0 0 0 0.45372,-0.45475 0.45450735,0.45450735 0 0 0 -0.12764,-0.31575 L 95.42415,184.26472 a 1.3797789,1.3797789 0 0 0 -0.949813,-0.37931 z" /></g></g></svg>
