<?xml version="1.0" encoding="UTF-8" standalone="no"?>
<!-- Created with Inkscape (http://www.inkscape.org/) -->

<svg
   width="24.323mm"
   height="24.323mm"
   viewBox="0 0 24.323 24.323"
   version="1.1"
   id="svg1"
   xml:space="preserve"
   inkscape:version="1.4.2 (1:1.4.2+202505120737+ebf0e940d0)"
   sodipodi:docname="favicon.svg"
   xmlns:inkscape="http://www.inkscape.org/namespaces/inkscape"
   xmlns:sodipodi="http://sodipodi.sourceforge.net/DTD/sodipodi-0.dtd"
   xmlns="http://www.w3.org/2000/svg"
   xmlns:svg="http://www.w3.org/2000/svg"><sodipodi:namedview
     id="namedview1"
     pagecolor="#ffffff"
     bordercolor="#000000"
     borderopacity="0.25"
     inkscape:showpageshadow="2"
     inkscape:pageopacity="0.0"
     inkscape:pagecheckerboard="0"
     inkscape:deskcolor="#d1d1d1"
     inkscape:document-units="mm"
     inkscape:zoom="2.8284271"
     inkscape:cx="79.19596"
     inkscape:cy="109.07122"
     inkscape:window-width="1920"
     inkscape:window-height="999"
     inkscape:window-x="3840"
     inkscape:window-y="0"
     inkscape:window-maximized="1"
     inkscape:current-layer="layer5" /><defs
     id="defs1" /><g
     inkscape:groupmode="layer"
     id="layer2"
     inkscape:label="base"
     transform="translate(-8.7025928,-9.8794918)"
     style="display:inline"><rect
       style="fill:#ffffff;fill-opacity:1;stroke-width:0.0788588;stroke-miterlimit:7;paint-order:stroke fill markers"
       id="rect1"
       width="24.323"
       height="24.323"
       x="8.7025928"
       y="9.8794918" /></g><g
     inkscape:groupmode="layer"
     id="layer3"
     inkscape:label="lines"
     style="display:inline"
     transform="translate(-8.7025928,-9.8794918)" /><g
     inkscape:groupmode="layer"
     id="layer5"
     inkscape:label="shapes"
     transform="translate(-8.7025928,-9.8794918)"
     style="display:inline"><path
       id="path3"
       style="display:none;fill:#00ffff;fill-opacity:0.25;stroke-width:0.120037;stroke-miterlimit:7;paint-order:stroke fill markers"
       d="m 20.7448,-7.89321 c -2.508054,0.50576 -4.584,2.698695 -4.953125,5.230469 0.01585,0.03788 -0.0039,0.08203 -0.0058,0.123051 v 16.404297 c 4.91e-4,0.472259 0.38321,0.854977 0.855469,0.855468 h 8.546875 c 0.472258,-4.91e-4 0.854977,-0.38321 0.855468,-0.855468 V -2.539694 c -7e-6,-0.10173 0,0 -7e-6,-0.122017 -0.369124,-2.531774 -2.450923,-4.725743 -4.958978,-5.231503 -0.112144,-0.0227 -0.2277,-0.0227 -0.339844,0 z"
       sodipodi:nodetypes="scccccccccss" /></g><g
     inkscape:groupmode="layer"
     id="layer6"
     inkscape:label="door"
     transform="translate(-8.7025928,-9.8794918)"
     style="display:inline" /><g
     inkscape:groupmode="layer"
     id="g61"
     inkscape:label="shapes"
     transform="translate(-8.7025928,-9.8794918)"
     style="display:inline" /><g
     inkscape:groupmode="layer"
     id="layer10"
     inkscape:label="new shapes" /><g
     inkscape:groupmode="layer"
     id="layer7"
     inkscape:label="door things"
     transform="translate(-6.7039728)"
     style="display:inline"><g
       id="g1"
       style="display:inline;fill:#015388;fill-opacity:1"
       transform="translate(-22.010415,-33.560742)"><path
         style="fill:#015388;fill-opacity:1;stroke:none;stroke-width:0.649999;stroke-miterlimit:7;paint-order:stroke fill markers"
         d="M 53.037389,55.451443 H 46.00429 L 45.15133,55.5612 c 0,0 -0.80172,1.076169 -0.80172,1.134047 0,0.05788 0.80072,1.188494 0.80072,1.188494 l 7.887059,2e-6 z"
         id="path1" /><path
         style="fill:#015388;fill-opacity:1;stroke:none;stroke-width:0.1;stroke-miterlimit:7;stroke-dasharray:none;stroke-opacity:1;paint-order:stroke fill markers"
         d="m 45.15133,50.76413 0.853212,-0.177287 h 7.032847 v 2.4323 h -7.032847 l -0.855812,0.09237 z"
         id="path5" /><path
         style="fill:#015388;fill-opacity:1;stroke:none;stroke-width:0.1;stroke-miterlimit:7;stroke-dasharray:none;stroke-opacity:1;paint-order:stroke fill markers"
         d="M 53.037389,48.154543 H 46.00429 l -0.855762,0.390832 2.02e-4,-2.132852 0.85556,-0.690281 h 7.033099"
         id="path28"
         sodipodi:nodetypes="cccccc" /><path
         style="fill:#015388;fill-opacity:1;stroke:none;stroke-width:0.1;stroke-miterlimit:7;stroke-dasharray:none;stroke-opacity:1;paint-order:stroke fill markers"
         d="m 44.457097,42.308528 0.369453,-0.78092 0.626074,-0.669966 h 7.584765 v 2.4323 H 46.004542 L 45.15033,44.02832 Z"
         id="path39" /><path
         style="fill:#015388;fill-opacity:1;stroke:none;stroke-width:0.1;stroke-miterlimit:7;stroke-dasharray:none;stroke-opacity:0.5;paint-order:stroke fill markers"
         d="m 44.407488,35.993042 -1.488538,2.12382 -0.221823,0.841877 0.759889,1.418611 0.782302,-1.223439 0.716706,-0.728569 h 8.081365 v -2.4323 z"
         id="path41-1"
         sodipodi:nodetypes="ccccccccc" /><path
         style="fill:#015388;fill-opacity:1;stroke:none;stroke-width:0.1;stroke-miterlimit:7;stroke-dasharray:none;stroke-opacity:0.5;paint-order:stroke fill markers"
         d="m 40.295416,38.378649 -0.09917,-0.862813 -0.735286,-3.955094 1.506948,-0.487826 1.322916,0.487826 -0.735286,3.955094 -0.09917,0.862813"
         id="path52-1"
         sodipodi:nodetypes="ccccccc" /><path
         style="fill:#015388;fill-opacity:1;stroke:none;stroke-width:0.649999;stroke-miterlimit:7;paint-order:stroke fill markers"
         d="m 28.714389,55.451442 h 7.033099 l 0.85296,0.109757 c 0,0 0.80172,1.076169 0.80172,1.134047 0,0.05788 -0.80072,1.188494 -0.80072,1.188494 l -7.887059,2e-6 z"
         id="path1-90" /><path
         style="fill:#015388;fill-opacity:1;stroke:none;stroke-width:0.1;stroke-miterlimit:7;stroke-dasharray:none;stroke-opacity:1;paint-order:stroke fill markers"
         d="m 36.600448,50.764129 -0.853212,-0.177287 h -7.032847 v 2.4323 h 7.032847 l 0.855812,0.09237 z"
         id="path5-9" /><path
         style="fill:#015388;fill-opacity:1;stroke:none;stroke-width:0.1;stroke-miterlimit:7;stroke-dasharray:none;stroke-opacity:1;paint-order:stroke fill markers"
         d="m 28.714389,48.154542 h 7.033099 l 0.855762,0.390832 -2.02e-4,-2.132852 -0.85556,-0.690281 h -7.033099"
         id="path28-1"
         sodipodi:nodetypes="cccccc" /><path
         style="fill:#015388;fill-opacity:1;stroke:none;stroke-width:0.1;stroke-miterlimit:7;stroke-dasharray:none;stroke-opacity:1;paint-order:stroke fill markers"
         d="m 37.294681,42.308528 -0.369453,-0.78092 -0.626074,-0.669967 h -7.584765 v 2.4323 h 7.032847 l 0.854212,0.738378 z"
         id="path39-7" /><path
         style="fill:#015388;fill-opacity:1;stroke:none;stroke-width:0.1;stroke-miterlimit:7;stroke-dasharray:none;stroke-opacity:0.5;paint-order:stroke fill markers"
         d="m 37.34429,35.993041 1.488538,2.12382 0.221823,0.841878 -0.759889,1.41861 -0.782302,-1.223439 -0.716706,-0.728569 h -8.081365 v -2.4323 z"
         id="path41-7"
         sodipodi:nodetypes="ccccccccc" /></g><path
       id="path54-0"
       style="display:inline;fill:#b77f44;fill-opacity:1;stroke:none;stroke-width:0.120037;stroke-miterlimit:7;stroke-opacity:1;paint-order:stroke fill markers"
       d="m 20.863843,14.546399 c -2.23546,0.450932 -3.946539,2.257772 -4.275191,4.514453 h 0.001 v 15.14164 l 8.547282,-10e-7 V 19.060852 h 0.0026 c -0.32872,-2.256832 -2.040047,-4.063715 -4.275708,-4.514453 z"
       sodipodi:nodetypes="ccccccccc"
       transform="translate(-1.9986199,-9.8794919)" /></g><g
     inkscape:groupmode="layer"
     id="layer9"
     inkscape:label="new lines" /><g
     inkscape:groupmode="layer"
     id="layer4"
     inkscape:label="door shapes"
     style="display:inline"
     transform="translate(-8.7025927,-9.8794919)"><path
       id="path7"
       style="fill:none;fill-opacity:0.25;stroke-width:0.65;stroke-miterlimit:7;paint-order:stroke fill markers;stroke:#ffffff;stroke-opacity:1;stroke-dasharray:none"
       d="m 20.363281,12.066406 c -3.179562,0.641173 -5.811343,3.419275 -6.279297,6.628906 l -0.02539,0.365235 v 16.404297 c 6e-5,1.397946 1.133304,2.53119 2.53125,2.53125 h 8.546875 c 1.397946,-6e-5 2.53119,-1.133304 2.53125,-2.53125 V 19.060547 c -0.02539,-0.365235 0,0 -0.02539,-0.365235 -0.467954,-3.209632 -3.099734,-5.987734 -6.279297,-6.628906 -0.330017,-0.0665 -0.669983,-0.0665 -1,0 z"
       sodipodi:nodetypes="ccccccccccc" /><path
       id="rect4"
       style="display:inline;fill:#d2d2d2;fill-opacity:1;stroke-width:0.0788588;stroke-miterlimit:7;paint-order:stroke fill markers"
       d="M 20.184579 13.834289 C 19.70698 13.977129 19.249204 14.181137 18.820838 14.435803 L 19.043047 15.277095 C 19.425933 15.034552 19.841956 14.838672 20.283798 14.697286 L 20.184579 13.834806 L 20.184579 13.834289 z M 21.543669 13.834806 L 21.444451 14.697286 C 21.886355 14.838716 22.302275 15.034995 22.685202 15.277612 L 22.907411 14.43632 C 22.478887 14.181724 22.021054 13.977691 21.543669 13.834806 z M 24.227743 15.472432 L 23.771957 16.185567 C 24.214368 16.666907 24.569579 17.228759 24.814788 17.846447 L 25.440589 17.176204 C 25.132639 16.549137 24.719588 15.971845 24.227743 15.472432 z M 17.501022 15.473466 C 17.009553 15.973441 16.59702 16.550889 16.289727 17.178788 L 16.912944 17.845931 C 17.158195 17.228243 17.513834 16.666375 17.956292 16.18505 L 17.501022 15.473466 z M 15.734205 19.608614 L 15.734205 22.041023 L 15.735755 22.041023 L 16.58945 22.730387 L 16.58945 20.34707 L 15.735238 19.608614 L 15.734205 19.608614 z M 25.992494 19.608614 L 25.138282 20.34707 L 25.136732 20.343453 L 25.136732 22.731421 L 25.992494 22.041023 L 25.992494 19.608614 z M 15.734205 24.473433 L 15.734205 26.905843 L 15.735238 26.905843 L 16.588416 27.083093 L 16.58945 28.022054 L 16.58945 24.863073 L 15.735755 24.473433 L 15.734205 24.473433 z M 25.992494 24.473433 L 25.136732 24.864107 L 25.136732 29.430236 L 25.139316 27.083093 L 25.992494 26.905843 L 25.992494 24.473433 z M 25.136732 29.430236 L 25.136732 31.883317 C 25.138435 31.881027 25.139316 31.879699 25.139316 31.879699 L 25.992494 31.770145 L 25.992494 29.337736 L 25.136732 29.430236 z M 15.734205 29.337736 L 15.734205 31.770145 L 15.735755 31.770145 L 16.588416 31.879699 C 16.588416 31.879699 16.588765 31.88033 16.58945 31.88125 L 16.58945 29.430236 L 15.735238 29.337736 L 15.734205 29.337736 z M 25.136732 34.200488 L 25.136732 34.202555 L 25.138282 34.202555 C 25.138133 34.202344 25.137611 34.20173 25.136732 34.200488 z " /></g></svg>
