<?xml version="1.0" encoding="UTF-8" standalone="no"?>
<!-- Created with Inkscape (http://www.inkscape.org/) -->

<svg
   width="135.46666mm"
   height="135.46666mm"
   viewBox="0 0 135.46666 135.46666"
   version="1.1"
   id="svg1"
   xml:space="preserve"
   inkscape:version="1.4.2 (1:1.4.2+202505120737+ebf0e940d0)"
   sodipodi:docname="camera-icon.svg"
   xmlns:inkscape="http://www.inkscape.org/namespaces/inkscape"
   xmlns:sodipodi="http://sodipodi.sourceforge.net/DTD/sodipodi-0.dtd"
   xmlns="http://www.w3.org/2000/svg"
   xmlns:svg="http://www.w3.org/2000/svg"><sodipodi:namedview
     id="namedview1"
     pagecolor="#ffffff"
     bordercolor="#000000"
     borderopacity="0.25"
     inkscape:showpageshadow="2"
     inkscape:pageopacity="0.0"
     inkscape:pagecheckerboard="0"
     inkscape:deskcolor="#d1d1d1"
     inkscape:document-units="mm"
     inkscape:zoom="2.8970538"
     inkscape:cx="353.9803"
     inkscape:cy="235.58416"
     inkscape:window-width="1920"
     inkscape:window-height="999"
     inkscape:window-x="1920"
     inkscape:window-y="0"
     inkscape:window-maximized="1"
     inkscape:current-layer="layer1" /><defs
     id="defs1"><inkscape:path-effect
       effect="fillet_chamfer"
       id="path-effect3"
       is_visible="true"
       lpeversion="1"
       nodesatellites_param="F,0,0,1,0,0,0,1 @ F,0,0,1,0,20.521582,0,1 @ F,0,0,1,0,0,0,1"
       radius="0"
       unit="px"
       method="auto"
       mode="F"
       chamfer_steps="1"
       flexible="false"
       use_knot_distance="true"
       apply_no_radius="true"
       apply_with_radius="true"
       only_selected="false"
       hide_knots="false" /><inkscape:path-effect
       effect="fillet_chamfer"
       id="path-effect3-9"
       is_visible="true"
       lpeversion="1"
       nodesatellites_param="F,0,0,1,0,0,0,1 @ F,0,0,1,0,20.521582,0,1 @ F,0,0,1,0,0,0,1 @ F,0,0,1,0,0,0,1"
       radius="0"
       unit="px"
       method="auto"
       mode="F"
       chamfer_steps="1"
       flexible="false"
       use_knot_distance="true"
       apply_no_radius="true"
       apply_with_radius="true"
       only_selected="false"
       hide_knots="false" /></defs><g
     inkscape:label="Layer 1"
     inkscape:groupmode="layer"
     id="layer1"
     transform="translate(-301.88959,-494.77084)"><path
       class="st0"
       d="m 412.8537,530.60937 h -25.23935 l -1.06645,-6.00372 c 0,-2.64638 -2.13291,-4.77928 -4.77929,-4.77928 h -24.33089 c -2.64638,0 -4.77928,2.1329 -4.77928,4.77928 l -0.86896,6.00372 h -25.43684 c -3.35735,0 -6.08272,2.72538 -6.08272,6.08273 v 62.40715 c 0,3.35735 2.72537,6.08272 6.08272,6.08272 h 86.54055 c 3.35735,0 6.08273,-2.72537 6.08273,-6.08272 V 536.6921 c -0.0395,-3.31785 -2.76488,-6.08273 -6.12222,-6.08273 z m -43.29003,60.47175 c -12.79742,0 -23.18544,-10.38803 -23.18544,-23.18545 0,-12.79741 10.38802,-23.18544 23.18544,-23.18544 12.79742,0 23.18544,10.38803 23.18544,23.18544 0,12.83692 -10.38802,23.18545 -23.18544,23.18545 z m 31.32207,-45.10695 c -2.1724,0 -3.94982,-1.77741 -3.94982,-3.94982 0,-2.1724 1.77742,-3.94982 3.94982,-3.94982 2.1724,0 3.94982,1.77742 3.94982,3.94982 0,2.17241 -1.77742,3.94982 -3.94982,3.94982 z"
       id="path1"
       style="fill:#000000;fill-opacity:1;stroke-width:0.394982" /><circle
       style="fill:#000000;fill-opacity:1;stroke-width:0.0862744;stroke-miterlimit:7;paint-order:stroke fill markers"
       id="circle3"
       cx="369.56366"
       cy="567.93518"
       r="16.073524" /></g></svg>
