<?xml version="1.0" encoding="UTF-8" standalone="no"?>
<svg
   shape-rendering="geometricPrecision"
   text-rendering="geometricPrecision"
   image-rendering="optimizeQuality"
   fill-rule="evenodd"
   clip-rule="evenodd"
   viewBox="0 0 512 512"
   version="1.1"
   id="svg1"
   sodipodi:docname="more-info-icon.svg"
   xml:space="preserve"
   inkscape:version="1.4.2 (1:1.4.2+202505120737+ebf0e940d0)"
   xmlns:inkscape="http://www.inkscape.org/namespaces/inkscape"
   xmlns:sodipodi="http://sodipodi.sourceforge.net/DTD/sodipodi-0.dtd"
   xmlns="http://www.w3.org/2000/svg"
   xmlns:svg="http://www.w3.org/2000/svg"><defs
     id="defs1" /><sodipodi:namedview
     id="namedview1"
     pagecolor="#ffffff"
     bordercolor="#000000"
     borderopacity="0.25"
     inkscape:showpageshadow="2"
     inkscape:pageopacity="0.0"
     inkscape:pagecheckerboard="0"
     inkscape:deskcolor="#d1d1d1"
     inkscape:zoom="0.56140411"
     inkscape:cx="203.06228"
     inkscape:cy="531.70255"
     inkscape:window-width="1920"
     inkscape:window-height="999"
     inkscape:window-x="1920"
     inkscape:window-y="0"
     inkscape:window-maximized="1"
     inkscape:current-layer="svg1" /><path
     fill-rule="nonzero"
     d="m 256,69.468675 c 51.50742,0 98.14025,20.882765 131.89805,54.633275 33.75051,33.75051 54.63327,80.39063 54.63327,131.89805 0,51.50742 -20.88276,98.14754 -54.63327,131.89805 -33.7578,33.75051 -80.39063,54.63327 -131.89805,54.63327 -51.50742,0 -98.14025,-20.88276 -131.89805,-54.63327 C 90.35144,354.14025 69.468675,307.50742 69.468675,256 c 0,-51.50742 20.882765,-98.14025 54.633275,-131.89805 C 157.85975,90.35144 204.49258,69.468675 256,69.468675 Z m -7.25723,117.332575 c 0,-3.11857 0.55376,-6.01855 1.654,-8.67808 1.09296,-2.64495 2.74697,-5.05675 4.94746,-7.2208 2.18591,-2.14948 4.58313,-3.78892 7.16979,-4.88188 2.60124,-1.09295 5.39921,-1.66129 8.39391,-1.66129 3.00199,0 5.79996,0.56834 8.37205,1.65401 2.57938,1.10024 4.94017,2.73968 7.10422,4.90373 2.14949,2.16406 3.75978,4.56128 4.83816,7.2208 1.08567,2.64496 1.61758,5.54494 1.61758,8.66351 0,3.03842 -0.53191,5.8874 -1.61029,8.51778 -1.07839,2.6231 -2.68139,5.05675 -4.84545,7.26452 -2.14219,2.20777 -4.50298,3.87635 -7.08236,4.98388 -2.57938,1.10025 -5.37735,1.66858 -8.39391,1.66858 -3.07485,0 -5.93111,-0.55376 -8.56149,-1.64672 -2.60853,-1.10024 -4.99846,-2.76154 -7.16251,-4.94745 -2.1422,-2.20049 -3.75978,-4.61956 -4.83087,-7.26452 -1.07839,-2.63767 -1.61029,-5.49393 -1.61029,-8.57607 z m 9.76374,129.81414 c -0.80878,2.8927 -2.44093,8.56879 2.40451,8.56879 1.04924,0 2.38265,-0.5902 3.97836,-1.74873 1.72688,-1.24598 3.70877,-3.14043 5.92383,-5.64695 2.25149,-2.55023 4.60499,-5.57408 7.04593,-9.04968 2.42636,-3.46832 4.98388,-7.44668 7.64341,-11.88409 0.2696,-0.47361 0.89623,-0.63391 1.37713,-0.34974 l 9.00596,6.68889 c 0.43719,0.31332 0.53191,0.9108 0.25503,1.35527 -4.14595,7.19894 -8.33562,13.48709 -12.57629,18.85715 -4.26254,5.39921 -8.59065,9.88762 -12.96976,13.4288 l -0.0729,0.0437 c -4.38641,3.55575 -8.8821,6.22985 -13.48709,8.0223 -12.80946,4.96203 -33.05102,4.15324 -38.85098,-10.8057 -3.65776,-9.44315 -0.65578,-20.17599 2.22963,-29.41512 l 14.54361,-44.03888 c 0.93266,-3.33716 2.10577,-7.00949 2.52838,-10.44138 0.70678,-5.73438 -1.81431,-9.44315 -8.05874,-9.44315 H 216.7118 c -0.55377,0 -1.00552,-0.45175 -1.00552,-1.00552 l 0.0583,-0.34974 3.33716,-12.15369 c 0.11658,-0.45175 0.53191,-0.75778 0.98366,-0.74321 l 64.93622,-2.0329 c 0.55377,-0.0219 1.02738,0.41533 1.04924,0.96909 l -0.051,0.31332 z m 115.3434,-178.4653 C 343.69158,107.99177 302.02078,89.331347 256,89.331347 c -46.02078,0 -87.69158,18.660423 -117.84991,48.818743 C 107.99177,168.30842 89.331347,209.97922 89.331347,256 c 0,46.02078 18.660423,87.69158 48.818743,117.84991 30.15833,30.15832 71.82913,48.81874 117.84991,48.81874 46.02078,0 87.69158,-18.66042 117.84991,-48.81874 30.15832,-30.15833 48.81874,-71.82913 48.81874,-117.84991 0,-46.02078 -18.66042,-87.69158 -48.81874,-117.84991 z"
     id="path1"
     style="stroke-width:0.728638" /></svg>
